HIERARCHY
ROOT Hips
{
	OFFSET 0.000000 0.000000 0.000000
	CHANNELS 6 Xposition Yposition Zposition Xrotation Yrotation Zrotation
	JOINT LeftUpLeg_virtual
	{
		OFFSET 0.000000 0.000000 0.000000
		CHANNELS 3 Xrotation Yrotation Zrotation
		JOINT LeftUpLeg
		{
			OFFSET 10.205400 -3.823500 0.155100
			CHANNELS 3 Xrotation Yrotation Zrotation
			JOINT LeftLeg
			{
				OFFSET 0.708757 -12.982077 0.567790
				CHANNELS 3 Xrotation Yrotation Zrotation
				JOINT LeftFoot
				{
					OFFSET -0.708756 -10.717838 -2.184338
					CHANNELS 3 Xrotation Yrotation Zrotation
					JOINT LeftToeBase
					{
						OFFSET 0.108149 -7.191104 7.560241
						CHANNELS 3 Xrotation Yrotation Zrotation
						JOINT LeftToe_End
						{
							OFFSET 0.070230 0.081724 4.490308
							CHANNELS 3 Xrotation Yrotation Zrotation
							End Site
							{
								OFFSET 0 0 0
							}
						}
					}
				}
			}
		}
	}
	JOINT RightUpLeg_virtual
	{
		OFFSET 0.000000 0.000000 0.000000
		CHANNELS 3 Xrotation Yrotation Zrotation
		JOINT RightUpLeg
		{
			OFFSET -10.205400 -3.823500 0.005500
			CHANNELS 3 Xrotation Yrotation Zrotation
			JOINT RightLeg
			{
				OFFSET -0.708756 -12.982134 0.610632
				CHANNELS 3 Xrotation Yrotation Zrotation
				JOINT RightFoot
				{
					OFFSET 0.708754 -10.717769 -1.945823
					CHANNELS 3 Xrotation Yrotation Zrotation
					JOINT RightToeBase
					{
						OFFSET -0.108140 -7.191069 7.372968
						CHANNELS 3 Xrotation Yrotation Zrotation
						JOINT RightToe_End
						{
							OFFSET -0.070227 0.081735 4.479403
							CHANNELS 3 Xrotation Yrotation Zrotation
							End Site
							{
								OFFSET 0 0 0
							}
						}
					}
				}
			}
		}
	}
	JOINT Spine_virtual
	{
		OFFSET 0.000000 0.000000 0.000000
		CHANNELS 3 Xrotation Yrotation Zrotation
		JOINT Spine
		{
			OFFSET 0.000000 6.876099 0.125700
			CHANNELS 3 Xrotation Yrotation Zrotation
			JOINT Spine1
			{
				OFFSET 0.000000 5.730043 0.104720
				CHANNELS 3 Xrotation Yrotation Zrotation
				JOINT Spine1_split
				{
					OFFSET 0.000000 5.730043 0.104720
					CHANNELS 3 Xrotation Yrotation Zrotation
					JOINT Spine2
					{
						OFFSET 0.000000 5.730043 0.104720
						CHANNELS 3 Xrotation Yrotation Zrotation
						JOINT Neck_virtual
						{
							OFFSET 0.000000 0.000000 0.000000
							CHANNELS 3 Xrotation Yrotation Zrotation
							JOINT Neck
							{
								OFFSET 0.000000 10.314075 0.188496
								CHANNELS 3 Xrotation Yrotation Zrotation
								JOINT Head
								{
									OFFSET 0.000000 7.643700 -2.377400
									CHANNELS 3 Xrotation Yrotation Zrotation
									JOINT HeadTop_End
									{
										OFFSET 0.000000 43.788605 -13.619600
										CHANNELS 3 Xrotation Yrotation Zrotation
										End Site
										{
											OFFSET 0 0 0
										}
									}
								}
							}
						}
						JOINT LeftShoulder_virtual
						{
							OFFSET 0.000000 0.000000 0.000000
							CHANNELS 3 Xrotation Yrotation Zrotation
							JOINT LeftShoulder
							{
								OFFSET 2.196100 4.412489 0.087492
								CHANNELS 3 Xrotation Yrotation Zrotation
								JOINT LeftShoulder_split
								{
									OFFSET 2.196100 4.412489 0.087492
									CHANNELS 3 Xrotation Yrotation Zrotation
									JOINT LeftArm
									{
										OFFSET 8.771219 -2.981674 -0.026999
										CHANNELS 3 Xrotation Yrotation Zrotation
										JOINT LeftForeArm
										{
											OFFSET 8.512804 0.000000 -0.000000
											CHANNELS 3 Xrotation Yrotation Zrotation
											JOINT LeftHand
											{
												OFFSET 18.484802 0.000000 -0.000000
												CHANNELS 3 Xrotation Yrotation Zrotation
												End Site
												{
													OFFSET 0 0 0
												}
											}
										}
									}
								}
							}
						}
						JOINT RightShoulder_virtual
						{
							OFFSET 0.000000 0.000000 0.000000
							CHANNELS 3 Xrotation Yrotation Zrotation
							JOINT RightShoulder
							{
								OFFSET -2.196100 4.412496 0.070690
								CHANNELS 3 Xrotation Yrotation Zrotation
								JOINT RightShoulder_split
								{
									OFFSET -2.196100 4.412496 0.070690
									CHANNELS 3 Xrotation Yrotation Zrotation
									JOINT RightArm
									{
										OFFSET -8.771282 -2.981682 -0.094208
										CHANNELS 3 Xrotation Yrotation Zrotation
										JOINT RightForeArm
										{
											OFFSET -8.494598 0.000000 0.000000
											CHANNELS 3 Xrotation Yrotation Zrotation
											JOINT RightHand
											{
												OFFSET -18.483803 0.000000 0.000001
												CHANNELS 3 Xrotation Yrotation Zrotation
												End Site
												{
													OFFSET 0 0 0
												}
											}
										}
									}
								}
							}
						}
					}
				}
			}
		}
	}
}
MOTION
Frames: 11
Frame Time: 0.03333333
-0.410599 28.052671 0.306578 0.000000 0.000000 0.000000 -19.876805 1.611212 -0.269202 -11.212625 -0.008909 16.808146 59.947027 -0.165035 -0.710776 -37.096455 3.696424 -15.751215 -0.730436 -0.599742 -0.375769 0.000000 0.000000 0.000000 -19.404130 1.825348 -0.200552 -2.795076 -9.405643 -20.434362 55.104266 5.975583 0.551182 -39.910062 -5.629395 14.521727 4.054429 -0.309897 -1.236863 0.000000 0.000000 0.000000 -20.030884 3.661052 -0.584440 19.145751 -1.624732 3.077287 9.491897 -0.268233 1.393015 1.506924 4.301908 -1.235713 0.000000 0.000000 0.000000 8.211481 -0.707425 1.285034 -15.834385 0.827697 -1.979024 -18.471866 -2.199932 1.437588 0.000000 0.000000 0.000000 10.352787 -1.101072 1.474350 1.665123 -7.595856 -6.362658 -8.502405 -1.013847 -5.975645 -7.037756 -17.345335 -53.543099 64.355238 -58.385837 56.703937 0.000000 0.000000 0.000000 8.888094 -0.585483 1.151120 10.556179 -0.630607 14.024021 -1.892700 1.575350 -1.990630 -24.307969 10.941788 63.211031 83.177156 66.700670 -79.414753 0.000000 0.000000 0.000000 
-0.375456 28.021923 0.310381 0.000000 0.000000 0.000000 -19.735808 2.254185 -0.168225 -11.326292 -0.005014 16.591740 60.040143 -0.083432 -0.453946 -36.950934 3.782843 -15.956618 -1.070495 -0.601936 -0.326158 0.000000 0.000000 0.000000 -19.242113 2.495808 -0.163978 -2.718861 -9.103724 -20.578090 54.820160 6.139747 0.434851 -39.928459 -5.777092 14.533944 3.619925 -0.214459 -1.289919 0.000000 0.000000 0.000000 -19.685438 3.666383 -0.519139 19.004230 -1.621499 2.997204 9.433733 -0.403191 1.242603 1.521175 3.421357 -1.358188 0.000000 0.000000 0.000000 8.225891 -0.696058 1.147180 -15.047375 0.858289 -2.411728 -18.758747 -1.646938 1.221635 0.000000 0.000000 0.000000 10.207164 -1.139671 1.532780 1.550531 -7.977185 -6.450361 -7.429460 -0.218412 -5.321983 -8.841621 -15.875716 -53.401523 61.963736 -58.674610 54.031957 0.000000 0.000000 0.000000 9.071244 -0.660212 1.161463 10.749638 -0.769423 15.008162 -3.340061 1.346495 -1.093314 -24.157986 8.995649 59.999687 81.057939 66.412497 -76.078984 0.000000 0.000000 0.000000 
-0.327432 27.997200 0.321089 0.000000 0.000000 0.000000 -19.160624 3.647986 -0.079870 -11.810895 -0.717028 16.287927 60.416636 0.004259 -0.096628 -36.806161 3.514087 -15.704729 -1.435230 -0.602848 -0.221800 0.000000 0.000000 0.000000 -18.646883 4.260803 -0.047718 -2.388416 -9.434837 -20.590811 54.378517 6.058627 0.432261 -39.988565 -6.184123 14.256317 3.406352 -0.231825 -1.043368 0.000000 0.000000 0.000000 -19.090474 4.564241 -0.317140 18.788228 -1.660150 2.866234 9.125138 -0.639815 1.069167 1.170862 2.429955 -0.539064 0.000000 0.000000 0.000000 8.051656 -0.825796 1.068913 -13.562793 0.699051 -2.847086 -18.685268 -1.087215 0.427393 0.000000 0.000000 0.000000 9.786755 -1.235011 1.610276 1.335254 -9.158476 -6.735573 -6.660750 0.261024 -4.593323 -10.246797 -14.537803 -51.755673 58.013714 -57.281470 48.247483 0.000000 0.000000 0.000000 9.131676 -0.938643 1.129095 10.846344 -1.252438 16.688017 -4.161944 2.070956 -0.099778 -23.343520 6.044939 53.088666 86.061832 68.587872 -79.352837 0.000000 0.000000 0.000000 
-0.268194 27.999132 0.328663 0.000000 0.000000 0.000000 -18.163602 5.633719 -0.042902 -12.650373 -2.166235 15.911588 60.676108 0.050112 0.270675 -36.799741 2.976508 -15.136025 -1.390568 -0.587179 -0.157066 0.000000 0.000000 0.000000 -17.739536 6.799408 0.071604 -1.961729 -10.352011 -20.517029 53.827433 5.788389 0.566576 -40.157370 -6.841322 13.780465 3.594352 -0.321873 -0.686256 0.000000 0.000000 0.000000 -18.185191 6.235629 -0.101508 18.524501 -1.785547 2.732574 8.581914 -1.012287 0.930529 0.741266 1.456502 0.708668 0.000000 0.000000 0.000000 7.663517 -1.099082 1.089869 -11.832238 0.310702 -2.850222 -18.328567 -0.486010 -0.799027 0.000000 0.000000 0.000000 9.201370 -1.441230 1.710693 1.081325 -10.752593 -7.306550 -5.546024 0.017528 -4.021986 -10.744587 -13.782669 -48.815495 53.983722 -54.609186 40.945983 0.000000 0.000000 0.000000 8.868435 -1.400044 1.082209 10.810276 -2.095181 18.412406 -4.412021 3.060899 0.592590 -23.430961 2.416848 44.533117 97.653011 72.214347 -89.325371 0.000000 0.000000 0.000000 
-0.201763 28.051678 0.329311 0.000000 0.000000 0.000000 -16.783634 8.118730 -0.062849 -13.758694 -4.215617 15.372953 60.520196 -0.035694 0.561986 -36.759993 2.282241 -14.662452 -0.918965 -0.543520 -0.163716 0.000000 0.000000 0.000000 -16.584886 9.684165 0.146070 -1.485851 -11.785004 -20.412224 53.134661 5.388796 0.866963 -40.448930 -7.665328 13.215170 4.146272 -0.409582 -0.429262 0.000000 0.000000 0.000000 -16.990398 8.534074 0.048000 18.249560 -2.012031 2.625052 7.881462 -1.523695 0.880734 0.472593 0.940103 1.121841 0.000000 0.000000 0.000000 7.137636 -1.540161 1.259737 -10.218131 -0.400501 -2.060843 -17.866622 -0.034724 -2.140865 0.000000 0.000000 0.000000 8.482038 -1.795001 1.829025 0.861097 -12.425919 -8.099489 -4.361236 -0.444944 -3.738083 -10.246362 -13.558445 -44.971659 51.293860 -51.926325 33.953144 0.000000 0.000000 0.000000 8.203195 -2.025727 1.058624 10.570340 -3.398233 19.300202 -3.128870 3.723949 0.546989 -26.725977 -1.046888 36.371912 118.813504 75.344459 -109.418353 0.000000 0.000000 0.000000 
-0.108412 28.196110 0.340008 0.000000 0.000000 0.000000 -15.144331 10.911402 -0.093852 -14.939111 -6.523199 14.581409 59.839595 -0.298659 0.680396 -36.349659 1.570296 -14.605805 -0.388549 -0.477830 -0.178272 0.000000 0.000000 0.000000 -15.248927 12.525850 0.178916 -0.959940 -13.633683 -20.365831 52.114354 4.939482 1.300259 -40.743899 -8.531255 12.645924 4.823063 -0.436434 -0.405759 0.000000 0.000000 0.000000 -15.626336 11.119357 0.145022 17.981532 -2.347886 2.579784 7.074841 -2.144016 0.943995 0.225346 0.814754 0.635233 0.000000 0.000000 0.000000 6.604995 -2.132396 1.541887 -8.969998 -1.596881 -0.340597 -17.355987 -0.099887 -3.305871 0.000000 0.000000 0.000000 7.679663 -2.241094 1.942733 0.733712 -13.840782 -9.056681 -3.226397 -0.906739 -3.768543 -9.392813 -13.586242 -40.540871 49.901058 -50.380158 27.830987 0.000000 0.000000 0.000000 7.275338 -2.710359 1.085694 10.098179 -4.979359 18.437016 -1.078460 4.231662 0.193412 -34.288670 -2.702787 30.661942 145.229506 75.624797 -135.360334 0.000000 0.000000 0.000000 
0.014847 28.429604 0.424791 0.000000 0.000000 0.000000 -13.433779 13.738554 -0.041070 -15.989879 -8.649833 13.485292 58.624757 -0.487694 0.503067 -35.471959 0.952615 -14.649934 -0.102616 -0.402513 -0.169930 0.000000 0.000000 0.000000 -13.785741 15.131002 0.274030 -0.497606 -15.811058 -20.551991 50.477448 4.554127 1.823199 -40.802939 -9.235898 12.169501 5.468217 -0.389521 -0.596097 0.000000 0.000000 0.000000 -14.192472 13.663504 0.208457 17.748067 -2.666628 2.573636 6.308206 -2.698725 1.114730 0.465048 0.862007 -0.146258 0.000000 0.000000 0.000000 6.159836 -2.671625 1.858721 -8.297536 -3.187301 2.084867 -17.027885 -0.772337 -4.056338 0.000000 0.000000 0.000000 6.872532 -2.667932 2.066992 0.686680 -14.975048 -10.058830 -2.329893 -1.516411 -4.102639 -8.861697 -13.348465 -36.230486 48.657206 -49.968568 22.162830 0.000000 0.000000 0.000000 6.193977 -3.329065 1.174297 9.349885 -6.557679 15.720167 0.574026 4.447153 0.259590 -46.396929 -1.763388 27.962588 162.229683 73.882552 -152.305623 0.000000 0.000000 0.000000 
0.150454 28.754486 0.514286 0.000000 0.000000 0.000000 -11.800807 16.176933 0.251157 -16.635747 -10.261894 12.060226 56.822075 -0.308238 0.038989 -34.192313 0.533360 -14.420343 -0.069301 -0.325872 -0.170133 0.000000 0.000000 0.000000 -12.180585 17.247710 0.569940 -0.285164 -18.161864 -21.144249 48.031219 4.286468 2.386600 -40.253921 -9.595938 11.898345 5.830087 -0.290039 -0.886318 0.000000 0.000000 0.000000 -12.929110 16.065249 0.422452 17.568773 -2.820167 2.557421 5.659738 -2.965333 1.284545 0.783491 0.750618 -0.771072 0.000000 0.000000 0.000000 5.847300 -2.963854 2.092319 -8.356644 -5.117649 4.628376 -17.178035 -2.318624 -4.405643 0.000000 0.000000 0.000000 6.055762 -2.850844 2.146331 0.674104 -15.954147 -11.170312 -1.552825 -2.256051 -4.512456 -9.120491 -12.913458 -32.850795 46.706831 -49.940055 16.488647 0.000000 0.000000 0.000000 5.183810 -3.674163 1.251938 8.267491 -7.660731 11.304340 0.973646 5.302726 0.707939 -60.999286 1.416117 28.235169 166.758713 73.934810 -156.959837 0.000000 0.000000 0.000000 
0.276092 29.152525 0.576506 0.000000 0.000000 0.000000 -10.404838 18.057403 0.935965 -16.633099 -11.246964 10.374853 54.244772 0.258814 -0.577091 -32.729488 0.370027 -13.844254 -0.182597 -0.260501 -0.133765 0.000000 0.000000 0.000000 -10.676120 18.814892 1.187729 -0.412552 -20.537590 -22.238602 44.818284 4.139257 2.948986 -38.785649 -9.517397 11.905166 5.704445 -0.179368 -1.127987 0.000000 0.000000 0.000000 -11.923245 18.368694 0.949285 17.445427 -2.680474 2.482215 5.163846 -2.704238 1.335384 1.105371 0.029814 -0.657640 0.000000 0.000000 0.000000 5.595784 -2.779580 2.113370 -9.258107 -7.301038 6.585536 -17.740327 -4.627864 -4.638349 0.000000 0.000000 0.000000 5.278180 -2.578227 2.068467 0.587953 -16.873697 -12.509451 -0.435981 -2.918318 -4.150474 -10.721817 -12.745385 -30.862500 43.405425 -48.840541 10.287651 0.000000 0.000000 0.000000 4.490227 -3.477752 1.208451 7.092994 -7.381332 5.807065 -0.908333 6.410745 1.366071 -74.058778 5.998830 30.007688 153.891621 79.090312 -144.111145 0.000000 0.000000 0.000000 
0.376229 29.602612 0.602591 0.000000 0.000000 0.000000 -9.311762 19.481706 2.008823 -15.993470 -11.721224 8.525742 50.790899 0.962027 -1.162771 -31.126511 0.376222 -13.258458 -0.382099 -0.212454 0.043135 0.000000 0.000000 0.000000 -9.394623 19.932717 2.112372 -0.903842 -22.876885 -23.814098 41.082317 4.136242 3.472657 -36.428162 -9.004286 12.201569 5.179240 -0.104908 -1.221359 0.000000 0.000000 0.000000 -11.074283 20.605188 1.815122 17.359954 -2.136444 2.345405 4.917248 -1.715257 1.181434 1.252896 -0.646552 -0.241924 0.000000 0.000000 0.000000 5.334726 -1.947621 1.856608 -11.001833 -9.673130 7.447809 -18.408989 -7.450603 -5.042622 0.000000 0.000000 0.000000 4.683822 -1.716956 1.763801 0.370540 -17.904509 -13.985886 0.651754 -3.356847 -3.311080 -14.065312 -12.896621 -30.555309 38.778498 -45.147636 3.558249 0.000000 0.000000 0.000000 4.179292 -2.574002 0.987579 6.094531 -5.085031 0.299917 -3.702364 6.721091 1.532371 -81.668333 11.756980 30.287432 61.736714 80.770074 -51.800988 0.000000 0.000000 0.000000 
0.453780 30.079115 0.565411 0.000000 0.000000 0.000000 -8.528981 20.671692 3.282071 -14.933812 -11.879447 6.702509 46.684568 1.461906 -1.571796 -29.242533 0.344938 -13.113417 -0.612260 -0.176685 0.405102 0.000000 0.000000 0.000000 -8.480820 20.882545 3.221465 -1.573124 -25.069410 -25.687962 37.248741 4.211476 3.921368 -33.544657 -8.123197 12.659695 4.495655 -0.061424 -1.174842 0.000000 0.000000 0.000000 -10.426980 22.965152 3.027931 17.307614 -1.324804 2.206490 4.853193 -0.128428 0.774847 0.838553 -1.076694 -0.025801 0.000000 0.000000 0.000000 5.037943 -0.598871 1.308382 -13.320009 -12.152282 7.042308 -18.808357 -10.721549 -5.761590 0.000000 0.000000 0.000000 4.303187 -0.358530 1.178282 0.046227 -18.984371 -15.617245 1.538265 -3.270232 -2.382630 -18.749288 -13.314510 -31.712309 34.320512 -39.176097 -2.282406 0.000000 0.000000 0.000000 4.185659 -1.048368 0.563500 5.611951 -0.829548 -4.756779 -5.695097 6.480122 0.930547 -81.541913 18.423899 26.518433 26.450278 62.030945 -16.245588 0.000000 0.000000 0.000000 
